<?xml version="1.0" standalone="no"?><!DOCTYPE svg PUBLIC "-//W3C//DTD SVG 1.1//EN" "http://www.w3.org/Graphics/SVG/1.1/DTD/svg11.dtd"><svg t="1713711447247" class="icon" viewBox="0 0 1024 1024" version="1.1" xmlns="http://www.w3.org/2000/svg" p-id="1492" xmlns:xlink="http://www.w3.org/1999/xlink" width="200" height="200"><path d="M28.05 28.1h967.8v967.8H28.05z" fill="#466AFB" fill-opacity="0" p-id="1493"></path><path d="M56.55 80.8c17.8-35.3 60.9-49.6 96.3-31.8l799.5 401.9c13.8 6.9 24.9 18.1 31.9 31.9 17.8 35.4 3.5 78.5-31.9 96.3l-799.5 401.8c-15.7 7.9-33.7 9.7-50.7 5.2-38.3-10.2-61-49.5-50.8-87.8l93.6-350.6h295.4c18.4 0 33.5-13.8 35.6-31.7l0.2-4.2c0-19.8-16-35.8-35.8-35.8h-296.9l-92.1-344.5c-4-14.8-3-30.5 2.5-44.7l2.7-6z" fill="#466AFB" p-id="1494"></path></svg>